<svg width="405" height="591" viewBox="0 0 405 591" fill="none" xmlns="http://www.w3.org/2000/svg" xmlns:xlink="http://www.w3.org/1999/xlink">
<path d="M6.20117 19.5H394.361V583.182H6.20117V19.5Z" fill="white"/>
<path d="M24.3338 0.198311C35.0016 -0.309717 48.9852 0.233488 59.6126 0.979071C62.9432 1.21031 61.2567 2.24397 63.5558 2.45013C68.0525 2.85204 72.2418 2.34509 76.6855 2.82385C78.1581 2.98758 76.325 4.6249 77.8692 4.75909C86.3311 5.48269 94.3365 5.06564 102.909 5.41369C145.132 7.13086 186.636 7.74549 229.376 8.4915C243.468 8.73607 260.6 10.222 275.156 9.57218C276.855 9.49485 275.842 8.0577 276.165 7.93925C281.236 6.12592 279.55 9.02722 282.86 9.4127C296.001 10.9347 310.613 11.0671 323.259 10.5124C328.639 10.2723 323.245 7.4177 328.662 9.01994C329.038 9.12819 327.673 10.6543 329.148 10.8171C332.494 11.1832 338.842 10.9104 341.436 11.0313C346.433 11.2721 347.26 11.2568 351.987 11.2741C358.45 11.3112 366.135 12.0698 373.069 11.724C374.549 11.6457 372.59 10.0812 374.95 9.81498C377.312 9.54918 383.562 9.68184 385.668 10.0506C387.776 10.4196 386.878 11.6493 387.252 11.9311C388.941 13.2414 391.894 12.8304 394.361 12.1832L401.524 12.0364L401.677 19.5C402.205 21.5117 402.89 23.2004 402.927 23.618C404.315 40.5769 402.438 55.1198 402.444 71.0388C402.452 83.1238 403.071 96.0458 402.986 107.545C402.879 121.244 402.031 132.855 402.177 146.164C402.191 147.569 404.03 145.923 404.05 147.638C404.264 165.864 404.064 183.963 402.822 202.11C402.696 203.93 401.081 201.585 400.858 203.403C399.531 214.535 396.343 232.15 403.374 238.762C403.1 246.302 402.816 255.457 401.399 262.203C400.486 266.553 398.727 262.328 399.478 267.672C399.645 268.877 401.186 267.309 401.32 269.117C401.884 276.726 401.383 285.038 402.179 292.566C402.345 294.097 403.725 293.679 403.974 294.112C405.988 297.758 402.659 303.827 402.417 305.151C400.614 315.226 401.324 322.583 401.28 331.969C401.269 334.147 403.123 331.573 403.179 333.668C403.445 344.538 403.285 355.798 402.463 366.442C402.275 368.809 400.695 366.632 400.525 367.763C399.793 372.752 402.776 373.858 402.132 378.642C402 379.651 400.647 379.082 400.499 379.266C398.167 382.146 401.471 384.648 401.544 385.388C402.54 394.757 399.092 400.745 399.58 409.796C399.642 410.879 401.353 408.437 401.422 411.481C401.895 431.757 401.425 453.202 400.056 473.273C399.846 476.393 398.56 474.166 398.402 474.362C395.926 477.563 399.243 479.634 399.368 480.651C400.267 488.678 397.485 496.177 401.437 501.631C400.336 528.91 401.548 556.088 400.24 583.182L400.358 588.939L394.361 589.061C387.688 588.74 381.022 588.265 374.36 587.566C373.931 587.525 374.699 585.891 373.844 585.816C363.546 584.899 365.524 587.438 358.71 590.543C356.993 591.323 351.772 587.574 351.31 587.299C349.627 586.286 351.373 583.855 350.809 583.659C346.145 582.119 346.905 590.158 340.613 590.16C340.416 590.147 341.243 588.667 340.715 588.52C339.074 588.058 337.447 588.646 335.842 588.137C332.168 586.958 330.859 583.052 325.247 585.326C324.536 585.621 325.621 590.18 320.004 589.965C317.764 589.875 307.851 589.953 305.073 589.658C302.298 589.363 304.203 587.893 304.005 587.83C296.529 585.887 299.364 585.081 295.618 582.205C291.872 579.339 292.911 586.174 291.384 586.937C289.855 587.698 284.373 586.095 283.026 585.537C281.679 584.98 283.358 584.046 282.161 583.731C274.223 581.669 278.677 587.123 276.061 588.208C269.895 590.777 265.091 585.708 259.446 585.211C257.918 585.077 259.165 586.232 257.805 586.34C252.417 586.752 249.177 585.17 243.048 586.621C242.046 586.857 237.091 589.904 233.884 587.668C233.429 587.345 234.72 586.082 232.424 585.799C228.994 585.375 222.814 585.099 219.127 585.521C216.405 585.833 219.525 587.915 216.099 587.268C214.576 586.979 217.399 585.762 214.538 585.321C211.692 584.88 204.416 584.934 201.648 584.976C198.884 585.019 200.397 586.597 200.174 586.704C198.822 587.313 193.518 588.074 193.05 588.073C169.409 588.265 147.608 585.604 124.591 586.485C122.785 586.552 123.988 588.217 123.712 588.244C117.528 588.941 122.404 584.515 118.084 583.033C118.708 586.412 116.159 585.8 111.802 586.171C109.703 586.352 110.847 587.66 110.655 587.794C107.542 589.781 105.375 587.215 104.816 586.69C102.755 584.758 100.511 587.04 99.1085 585.749C97.7065 584.468 100.933 582.569 96.7557 582.593C95.5842 583.802 98.6856 586.963 95.5138 587.475C83.5468 589.413 61.2082 586.933 51.5861 586.675C41.9833 586.418 38.8816 586.641 33.2859 586.204C23.1784 585.414 26.8825 587.759 20.6065 588.832C14.312 589.905 17.372 584.136 16.4671 582.895C15.5791 581.656 14.6091 582.932 13.5042 582.25C12.403 581.569 14.7871 580.726 12.1971 580.47C10.8875 580.341 8.43022 580.84 6.20117 581.533L7.84988 583.182C7.17157 581 6.30776 579.037 5.66627 578.582C2.91877 576.64 0.0351524 579.833 1.04836 572.976C1.10849 572.582 2.62557 573.862 2.77889 572.352C3.94679 560.358 4.01919 547.897 5.05214 535.918C5.19654 534.271 6.88424 535.744 6.98737 534.785C8.06685 524.801 5.22119 528.37 2.06002 522.897C6.26686 524.126 8.84064 521.1 8.86548 513.522C8.88188 508.967 7.04454 509.751 5.74958 506.805C5.35922 505.921 6.6208 502.698 5.75672 502.114C2.93218 500.188 -0.229712 503.224 1.02932 495.411C1.08915 495.068 2.63527 496.159 2.7289 494.975C3.34179 487.319 0.387358 486.403 0.0295687 478.127C-0.251173 471.64 1.5504 460.104 1.84341 452.718C6.57313 452.873 5.49008 445.896 2.22902 443.066C2.36253 438.273 2.17818 433.096 2.62893 428.463C2.7826 426.868 4.15198 427.916 4.29994 427.715C6.62102 424.631 3.44837 422.547 3.32399 421.513C2.11491 410.299 4.51952 401.163 2.16952 390.461C2.08488 390.081 -1.20053 389.465 1.19833 386.604C1.36368 386.419 2.85849 389.954 2.97408 384.92C3.08993 379.885 4.85115 370.393 3.32875 363.402C2.96224 361.711 0.295161 357.432 2.37899 353.998C2.66195 353.541 3.60422 354.041 4.12855 353.381C5.7993 351.246 2.47856 350.08 5.29969 347.571C8.1207 345.062 10.2334 339.843 8.28705 332.793C8.23046 332.569 5.59847 330.9 5.64009 328.683C5.70878 325.144 6.25708 320.12 6.23994 316.425C6.23078 314.655 4.59643 315.788 4.56654 315.481C3.65072 303.584 5.10772 295.118 5.74006 282.373C5.85921 280.037 3.63054 273.323 5.39253 268.801C7.32136 263.834 15.345 268.938 13.4334 257.523C12.6688 252.919 2.4894 247.09 7.76337 238.816C6.45652 222.769 9.15571 207.929 7.28968 191.838C7.207 191.114 4.36601 188.826 4.40468 187.125C4.46758 184.599 5.79541 183.213 5.88288 181.41C6.28285 173.853 5.14679 166.938 5.3235 159.653C5.3877 156.887 6.76067 157.854 6.83741 154.555C6.91286 151.258 5.10493 149.059 5.9781 144.592C6.64366 141.217 10.339 137.843 10.7698 133.364C7.12469 133.194 7.19977 130.118 6.23756 124.65C6.05087 123.599 4.78218 124.726 4.62843 124.229C3.97455 122.206 5.02601 120.333 4.31422 118.412C4.14327 117.945 2.89846 117.923 2.68843 117.541C0.85521 114.292 3.6553 108.939 4.14284 108.02C5.9944 104.497 4.37537 102.851 5.1045 100.148C5.83354 97.4502 6.74491 101.484 7.18732 98.3327C8.10239 91.8001 7.90135 83.4065 7.95856 76.7719C7.9737 74.1247 6.31206 75.9308 6.27564 75.5518C5.8542 70.078 7.62171 64.5423 4.31184 61.5072C12.8699 57.7119 3.48175 58.2063 5.19496 50.3818C5.33352 49.7654 9.38058 48.9815 9.97473 51.3477C10.5683 53.7138 9.30326 57.3019 10.2294 60.5849C10.4468 61.3624 14.2391 65.8159 14.4689 66.4235C16.2642 71.1833 10.2164 71.8578 9.88427 72.1097C6.29957 74.9654 10.3851 80.4076 10.6674 81.8407C11.961 88.3971 11.1104 93.9674 12.0337 99.451C12.6305 103.038 16.592 103.388 16.4707 106.205C16.07 115.567 10.5436 118.834 15.3353 127.657C16.3573 129.548 20.6871 127.668 17.2824 134.447C17.0678 134.872 13.9532 139.905 15.9233 142.812C16.1717 143.178 17.4335 143.166 17.5395 143.647C18.2252 146.875 17.2199 149.027 17.7014 152.543C18.1829 156.059 18.9006 160.287 18.4726 164.301C18.2167 166.72 15.8657 169.824 15.2901 170.982C13.632 174.251 16.3506 177.757 14.3427 179.783C12.3247 181.826 9.26005 177.832 7.95618 183.189C11.2346 183.387 14.5996 183.843 17.8966 184.162C17.7811 195.901 16.721 207.452 16.8659 219.23C16.8871 220.69 18.6496 219.197 18.7178 220.763C18.9978 227.367 17.7414 233.136 18.2417 239.985C18.6358 245.287 20.5019 251.1 20.972 256.644C17.2206 260.03 18.4941 268.257 18.1513 274.232C18.0328 276.326 17.0309 276.186 16.704 277.675C15.4951 283.291 18.8102 280.659 19.3319 282.199C21.5585 288.805 14.0549 289.37 14.2403 297.159C14.2476 297.571 18.2474 302.615 18.4964 303.309C20.1206 307.723 17.1043 304.04 16.8088 306.802C16.2687 311.846 15.3135 315.351 16.485 321.268C16.832 322.994 19.325 327.133 17.3967 330.484C17.1442 330.925 15.8221 330.681 15.7447 331.036C14.4541 337.458 18.6082 337.627 20.0151 341.297C21.4217 344.968 18.5541 350.637 17.7276 351.79C15.5895 354.809 16.8138 349.478 16.604 349.314C14.1071 347.394 14.537 351.529 14.326 354.688C10.2529 355.145 10.4974 359.564 14.1237 357.963C14.5198 357.781 14.1399 355.322 14.326 354.688C18.3223 357.461 18.8341 362.317 15.0997 367.68C13.3494 370.19 11.3086 367.817 12.0552 375.443C12.3922 378.904 15.1967 377.566 15.9613 380.621C17.7059 387.598 15.0897 396.665 15.5019 403.859C15.6516 406.47 17.1868 403.926 17.342 405.711C17.7586 410.446 16.6067 414.622 17.1968 419.378C17.2522 419.809 18.8592 418.756 18.8797 420.235C19.0663 431.446 18.037 441.208 18.0085 452.914C17.9954 458.569 18.8817 468.681 18.7035 474.54C18.4042 484.694 16.0673 497.186 16.635 505.861C16.9984 511.519 18.6057 510.277 19.7009 512.702C21.8238 517.38 18.0212 525.66 17.4324 526.775C17.4129 526.809 17.034 521.941 16.2089 524.539C14.4897 526.049 17.425 526.72 17.4324 526.775C17.052 527.507 16.6872 537.233 16.9944 539.164C17.1623 540.214 18.6852 539.627 18.744 540.174C20.1068 553.178 20.4939 566.206 19.7818 579.396C19.7511 579.628 18.0476 579.278 17.9966 579.824C17.8795 581.004 17.8304 582.118 17.8354 583.182L6.20117 571.547C12.0239 571.52 16.3419 569.869 21.6667 568.823C27.9634 567.586 32.9571 568 36.6845 570.924C41.4355 570.556 48.2518 571.849 52.1743 572.633C56.0966 573.418 56.6439 570.102 56.989 570.037C67.7535 567.938 73.976 569.836 85.1437 570.132C90.4531 570.278 100.985 569.797 106.734 569.434C111.277 569.142 114.014 569.919 118.2 569.422C118.767 569.356 118.194 567.88 118.367 567.823C123.039 566.056 120.794 569.666 121.759 570.31C125.256 572.654 127.416 573.903 133.4 572.8C134.78 572.548 138.8 567.351 141.315 567.047C144.586 566.661 143.351 568.524 146.776 568.073C147.069 568.036 147.008 566.887 149.122 566.937C158.933 567.157 169.63 567.826 179.826 567.711C181.218 567.7 179.433 565.877 181.445 565.83C190.887 565.614 201.236 565.682 210.435 566.535C212.699 566.751 211.28 568.027 211.771 568.406C214.788 570.699 219.068 567.367 219.774 567.304C236.616 565.703 249.506 568.718 266.672 567.282C267.606 567.198 274.799 563.627 278.008 566.69C278.227 566.894 281.402 570.027 284.209 567.885C284.384 567.751 282.405 566.137 285.858 566.302C289.31 566.466 294.866 565.388 299.612 567.161C301.114 567.719 304.665 570.846 309.147 568.354C309.439 568.18 316.358 562.545 318.827 566.433C319.227 567.073 318.808 571.187 324.157 569.077C325.179 568.668 323.324 567.751 326.017 567.178C330.142 566.295 335.607 567.396 340.678 565.564C341.563 565.239 345.327 562.447 348.347 564.566C348.82 564.898 347.921 566.272 349.516 566.426C357.1 567.163 365.04 566.244 372.74 567.194C375.467 567.528 374.073 569.749 376.916 570.344C379.759 570.938 385.487 571.511 388.462 570.496C391.438 569.481 388.187 565.942 392.645 565.659C393.217 565.623 393.789 565.589 394.361 565.559L376.738 583.182C375.729 564.384 377.693 545.748 377.988 526.968C378.033 524.098 376.767 526.477 376.743 522.248C376.649 506.654 375.461 479.731 378.152 466.2C380.307 455.358 381.948 469.002 382.825 460.717C383.243 456.719 379.129 452.394 378.999 451.429C377.684 442.001 379.506 435.449 378.947 426.963C378.831 425.211 377.163 426.93 377.083 425.438C376.794 420.344 377.538 414.99 377.402 410.123C377.337 407.939 376.064 408.341 376.162 406.332C376.382 401.524 376.918 397.272 378.111 392.585C378.22 392.158 379.804 395.038 379.863 391.481C379.954 385.724 381.132 378.577 379.916 371.954C379.55 369.988 376.639 369.911 378.649 365.687C379.069 364.8 382.564 365.931 379.544 361.01C379.043 360.182 374.969 351.915 377.595 347.858C378.286 346.788 381.146 344.056 380.697 341.693C380.625 341.372 379.061 342.656 378.909 340.698C378.399 333.796 378.565 326.562 378.076 319.471C377.942 317.578 376.324 320.398 376.176 317.576C375.767 309.815 376.179 300.126 376.686 292.537C376.875 289.739 378.216 291.673 378.361 291.469C380.734 288.195 377.532 286.259 377.345 285.173C376.227 278.415 377.731 273.269 377.333 267.04C377.227 265.321 375.701 266.54 375.564 266.197C374.234 262.648 376.976 265.292 377.278 263.046C378.134 256.753 378.011 249.737 377.816 243.373C377.742 241.035 375.972 243.663 375.926 241.565C375.621 229.148 375.791 216.24 376.767 204.122C376.954 201.84 378.317 203.276 378.628 202.8C380.806 199.523 377.835 194.719 377.552 193.614C376.26 188.588 377.465 186.636 377.24 182.198C376.12 160.517 376.918 133.747 377.412 113.282C378.046 86.6131 379.343 65.919 379.006 40.4876C378.987 38.8713 377.173 40.5011 377.133 39.1079C376.974 32.5444 376.967 26.018 376.997 19.5L394.361 36.8638C383.014 36.8115 371.693 36.647 360.244 36.9797C358.765 37.0195 360.897 38.7386 358.523 38.8602C353.653 39.1217 347.485 39.0282 342.561 38.4793C340.16 38.2148 343.381 36.7397 340.964 36.5036C335.335 35.9506 329.302 35.8281 323.52 36.1037C321.06 36.2247 324.772 37.983 321.574 38.0032C299.79 38.1777 278.397 38.4805 256.383 36.2037C254.874 36.0473 253.55 32.4739 250.341 33.1592C250.1 34.1509 250.113 35.3175 250.007 36.3775C218.296 36.9485 186.908 35.7097 155.108 35.5181C153.767 35.5105 156.084 37.4038 153.488 37.3986C138.464 37.3706 123.875 37.8952 108.508 36.0133C106.983 35.8292 107.765 32.4983 103.272 33.0021C102.479 33.094 95.7115 33.5382 93.9618 34.2613C93.7241 34.3704 94.9588 35.9251 92.778 35.9704C80.105 36.2065 66.8244 35.8516 54.1733 34.9016C52.1316 34.7453 54.3059 33.0897 52.8517 32.964C42.5359 32.0851 31.3153 33.3437 21.4581 31.8405C14.86 30.8283 17.3028 27.9664 13.7967 25.1493C13.3008 24.7518 9.21508 24.6888 9.00379 23.0498C8.46136 18.9283 10.4404 14.4152 9.62833 10.0221C9.45677 9.07582 3.98493 10.095 7.22461 7.80833C7.45093 7.6553 11.418 6.89637 12.3951 6.12066C13.0754 5.58434 11.8495 3.91743 13.2375 3.23089C14.6254 2.545 16.1505 3.9423 18.4516 3.13568C20.7517 2.31908 19.7404 0.422787 24.3338 0.198311ZM69.8354 576.14C73.4674 577.732 74.0033 571.9 70.0751 573.295C69.8849 573.37 69.6481 576.062 69.8354 576.14ZM12.3218 207.386C9.74929 212.134 13.5319 215.383 15.5186 212.034C17.5032 208.684 13.1016 205.939 12.3218 207.386ZM10.4437 158.15C8.41538 163.699 16.6859 164.573 15.014 158.629C14.9195 158.283 10.5614 157.825 10.4437 158.15ZM30.0563 24.3471C30.0061 24.2696 27.0692 24.1942 26.999 24.2709C25.4351 26.1233 31.3079 26.2729 30.0563 24.3471ZM8.39893 109.291C7.28016 111.023 8.57164 116.011 9.96283 113.859C11.082 112.126 9.7906 107.134 8.39893 109.291ZM259.293 582.364C259.351 582.451 261.456 582.53 261.414 582.038C261.271 580.456 258.341 580.903 259.293 582.364ZM8.30371 26.2502C7.9924 38.5191 1.16057 45.9579 1.93148 32.5972C2.07096 30.1777 4.1101 37.8118 4.72603 34.7322C5.84815 29.0974 1.55859 25.3557 3.85719 19.6055C4.27791 18.5645 8.33665 25.5503 8.31323 26.272C8.31006 26.2649 8.30689 26.2575 8.30371 26.2502ZM71.9269 583.145C71.9995 583.222 74.9144 583.295 74.9842 583.219C76.5626 581.367 70.6907 581.219 71.9269 583.145ZM382.159 585.971C382.32 586.135 389.084 586.289 389.305 586.137C392.833 583.109 379.158 582.79 382.159 585.971ZM1.96956 452.601C0.106838 449.421 -0.112478 445.616 2.22664 443.081C2.10247 446.242 2.08418 449.423 1.96956 452.601Z" fill="white"/>
<mask id="mask0_44_5" style="mask-type:alpha" maskUnits="userSpaceOnUse" x="0" y="0" width="405" height="591">
<path d="M6.20117 19.5H394.361V583.182H6.20117V19.5Z" fill="white"/>
<path d="M24.3338 0.198311C35.0016 -0.309717 48.9852 0.233488 59.6126 0.979071C62.9432 1.21031 61.2567 2.24397 63.5558 2.45013C68.0525 2.85204 72.2418 2.34509 76.6855 2.82385C78.1581 2.98758 76.325 4.6249 77.8692 4.75909C86.3311 5.48269 94.3365 5.06564 102.909 5.41369C145.132 7.13086 186.636 7.74549 229.376 8.4915C243.468 8.73607 260.6 10.222 275.156 9.57218C276.855 9.49485 275.842 8.0577 276.165 7.93925C281.236 6.12592 279.55 9.02722 282.86 9.4127C296.001 10.9347 310.613 11.0671 323.259 10.5124C328.639 10.2723 323.245 7.4177 328.662 9.01994C329.038 9.12819 327.673 10.6543 329.148 10.8171C332.494 11.1832 338.842 10.9104 341.436 11.0313C346.433 11.2721 347.26 11.2568 351.987 11.2741C358.45 11.3112 366.135 12.0698 373.069 11.724C374.549 11.6457 372.59 10.0812 374.95 9.81498C377.312 9.54918 383.562 9.68184 385.668 10.0506C387.776 10.4196 386.878 11.6493 387.252 11.9311C388.941 13.2414 391.894 12.8304 394.361 12.1832L401.524 12.0364L401.677 19.5C402.205 21.5117 402.89 23.2004 402.927 23.618C404.315 40.5769 402.438 55.1198 402.444 71.0388C402.452 83.1238 403.071 96.0458 402.986 107.545C402.879 121.244 402.031 132.855 402.177 146.164C402.191 147.569 404.03 145.923 404.05 147.638C404.264 165.864 404.064 183.963 402.822 202.11C402.696 203.93 401.081 201.585 400.858 203.403C399.531 214.535 396.343 232.15 403.374 238.762C403.1 246.302 402.816 255.457 401.399 262.203C400.486 266.553 398.727 262.328 399.478 267.672C399.645 268.877 401.186 267.309 401.32 269.117C401.884 276.726 401.383 285.038 402.179 292.566C402.345 294.097 403.725 293.679 403.974 294.112C405.988 297.758 402.659 303.827 402.417 305.151C400.614 315.226 401.324 322.583 401.28 331.969C401.269 334.147 403.123 331.573 403.179 333.668C403.445 344.538 403.285 355.798 402.463 366.442C402.275 368.809 400.695 366.632 400.525 367.763C399.793 372.752 402.776 373.858 402.132 378.642C402 379.651 400.647 379.082 400.499 379.266C398.167 382.146 401.471 384.648 401.544 385.388C402.54 394.757 399.092 400.745 399.58 409.796C399.642 410.879 401.353 408.437 401.422 411.481C401.895 431.757 401.425 453.202 400.056 473.273C399.846 476.393 398.56 474.166 398.402 474.362C395.926 477.563 399.243 479.634 399.368 480.651C400.267 488.678 397.485 496.177 401.437 501.631C400.336 528.91 401.548 556.088 400.24 583.182L400.358 588.939L394.361 589.061C387.688 588.74 381.022 588.265 374.36 587.566C373.931 587.525 374.699 585.891 373.844 585.816C363.546 584.899 365.524 587.438 358.71 590.543C356.993 591.323 351.772 587.574 351.31 587.299C349.627 586.286 351.373 583.855 350.809 583.659C346.145 582.119 346.905 590.158 340.613 590.16C340.416 590.147 341.243 588.667 340.715 588.52C339.074 588.058 337.447 588.646 335.842 588.137C332.168 586.958 330.859 583.052 325.247 585.326C324.536 585.621 325.621 590.18 320.004 589.965C317.764 589.875 307.851 589.953 305.073 589.658C302.298 589.363 304.203 587.893 304.005 587.83C296.529 585.887 299.364 585.081 295.618 582.205C291.872 579.339 292.911 586.174 291.384 586.937C289.855 587.698 284.373 586.095 283.026 585.537C281.679 584.98 283.358 584.046 282.161 583.731C274.223 581.669 278.677 587.123 276.061 588.208C269.895 590.777 265.091 585.708 259.446 585.211C257.918 585.077 259.165 586.232 257.805 586.34C252.417 586.752 249.177 585.17 243.048 586.621C242.046 586.857 237.091 589.904 233.884 587.668C233.429 587.345 234.72 586.082 232.424 585.799C228.994 585.375 222.814 585.099 219.127 585.521C216.405 585.833 219.525 587.915 216.099 587.268C214.576 586.979 217.399 585.762 214.538 585.321C211.692 584.88 204.416 584.934 201.648 584.976C198.884 585.019 200.397 586.597 200.174 586.704C198.822 587.313 193.518 588.074 193.05 588.073C169.409 588.265 147.608 585.604 124.591 586.485C122.785 586.552 123.988 588.217 123.712 588.244C117.528 588.941 122.404 584.515 118.084 583.033C118.708 586.412 116.159 585.8 111.802 586.171C109.703 586.352 110.847 587.66 110.655 587.794C107.542 589.781 105.375 587.215 104.816 586.69C102.755 584.758 100.511 587.04 99.1085 585.749C97.7065 584.468 100.933 582.569 96.7557 582.593C95.5842 583.802 98.6856 586.963 95.5138 587.475C83.5468 589.413 61.2082 586.933 51.5861 586.675C41.9833 586.418 38.8816 586.641 33.2859 586.204C23.1784 585.414 26.8825 587.759 20.6065 588.832C14.312 589.905 17.372 584.136 16.4671 582.895C15.5791 581.656 14.6091 582.932 13.5042 582.25C12.403 581.569 14.7871 580.726 12.1971 580.47C10.8875 580.341 8.43022 580.84 6.20117 581.533L7.84988 583.182C7.17157 581 6.30776 579.037 5.66627 578.582C2.91877 576.64 0.0351524 579.833 1.04836 572.976C1.10849 572.582 2.62557 573.862 2.77889 572.352C3.94679 560.358 4.01919 547.897 5.05214 535.918C5.19654 534.271 6.88424 535.744 6.98737 534.785C8.06685 524.801 5.22119 528.37 2.06002 522.897C6.26686 524.126 8.84064 521.1 8.86548 513.522C8.88188 508.967 7.04454 509.751 5.74958 506.805C5.35922 505.921 6.6208 502.698 5.75672 502.114C2.93218 500.188 -0.229712 503.224 1.02932 495.411C1.08915 495.068 2.63527 496.159 2.7289 494.975C3.34179 487.319 0.387358 486.403 0.0295687 478.127C-0.251173 471.64 1.5504 460.104 1.84341 452.718C6.57313 452.873 5.49008 445.896 2.22902 443.066C2.36253 438.273 2.17818 433.096 2.62893 428.463C2.7826 426.868 4.15198 427.916 4.29994 427.715C6.62102 424.631 3.44837 422.547 3.32399 421.513C2.11491 410.299 4.51952 401.163 2.16952 390.461C2.08488 390.081 -1.20053 389.465 1.19833 386.604C1.36368 386.419 2.85849 389.954 2.97408 384.92C3.08993 379.885 4.85115 370.393 3.32875 363.402C2.96224 361.711 0.295161 357.432 2.37899 353.998C2.66195 353.541 3.60422 354.041 4.12855 353.381C5.7993 351.246 2.47856 350.08 5.29969 347.571C8.1207 345.062 10.2334 339.843 8.28705 332.793C8.23046 332.569 5.59847 330.9 5.64009 328.683C5.70878 325.144 6.25708 320.12 6.23994 316.425C6.23078 314.655 4.59643 315.788 4.56654 315.481C3.65072 303.584 5.10772 295.118 5.74006 282.373C5.85921 280.037 3.63054 273.323 5.39253 268.801C7.32136 263.834 15.345 268.938 13.4334 257.523C12.6688 252.919 2.4894 247.09 7.76337 238.816C6.45652 222.769 9.15571 207.929 7.28968 191.838C7.207 191.114 4.36601 188.826 4.40468 187.125C4.46758 184.599 5.79541 183.213 5.88288 181.41C6.28285 173.853 5.14679 166.938 5.3235 159.653C5.3877 156.887 6.76067 157.854 6.83741 154.555C6.91286 151.258 5.10493 149.059 5.9781 144.592C6.64366 141.217 10.339 137.843 10.7698 133.364C7.12469 133.194 7.19977 130.118 6.23756 124.65C6.05087 123.599 4.78218 124.726 4.62843 124.229C3.97455 122.206 5.02601 120.333 4.31422 118.412C4.14327 117.945 2.89846 117.923 2.68843 117.541C0.85521 114.292 3.6553 108.939 4.14284 108.02C5.9944 104.497 4.37537 102.851 5.1045 100.148C5.83354 97.4502 6.74491 101.484 7.18732 98.3327C8.10239 91.8001 7.90135 83.4065 7.95856 76.7719C7.9737 74.1247 6.31206 75.9308 6.27564 75.5518C5.8542 70.078 7.62171 64.5423 4.31184 61.5072C12.8699 57.7119 3.48175 58.2063 5.19496 50.3818C5.33352 49.7654 9.38058 48.9815 9.97473 51.3477C10.5683 53.7138 9.30326 57.3019 10.2294 60.5849C10.4468 61.3624 14.2391 65.8159 14.4689 66.4235C16.2642 71.1833 10.2164 71.8578 9.88427 72.1097C6.29957 74.9654 10.3851 80.4076 10.6674 81.8407C11.961 88.3971 11.1104 93.9674 12.0337 99.451C12.6305 103.038 16.592 103.388 16.4707 106.205C16.07 115.567 10.5436 118.834 15.3353 127.657C16.3573 129.548 20.6871 127.668 17.2824 134.447C17.0678 134.872 13.9532 139.905 15.9233 142.812C16.1717 143.178 17.4335 143.166 17.5395 143.647C18.2252 146.875 17.2199 149.027 17.7014 152.543C18.1829 156.059 18.9006 160.287 18.4726 164.301C18.2167 166.72 15.8657 169.824 15.2901 170.982C13.632 174.251 16.3506 177.757 14.3427 179.783C12.3247 181.826 9.26005 177.832 7.95618 183.189C11.2346 183.387 14.5996 183.843 17.8966 184.162C17.7811 195.901 16.721 207.452 16.8659 219.23C16.8871 220.69 18.6496 219.197 18.7178 220.763C18.9978 227.367 17.7414 233.136 18.2417 239.985C18.6358 245.287 20.5019 251.1 20.972 256.644C17.2206 260.03 18.4941 268.257 18.1513 274.232C18.0328 276.326 17.0309 276.186 16.704 277.675C15.4951 283.291 18.8102 280.659 19.3319 282.199C21.5585 288.805 14.0549 289.37 14.2403 297.159C14.2476 297.571 18.2474 302.615 18.4964 303.309C20.1206 307.723 17.1043 304.04 16.8088 306.802C16.2687 311.846 15.3135 315.351 16.485 321.268C16.832 322.994 19.325 327.133 17.3967 330.484C17.1442 330.925 15.8221 330.681 15.7447 331.036C14.4541 337.458 18.6082 337.627 20.0151 341.297C21.4217 344.968 18.5541 350.637 17.7276 351.79C15.5895 354.809 16.8138 349.478 16.604 349.314C14.1071 347.394 14.537 351.529 14.326 354.688C10.2529 355.145 10.4974 359.564 14.1237 357.963C14.5198 357.781 14.1399 355.322 14.326 354.688C18.3223 357.461 18.8341 362.317 15.0997 367.68C13.3494 370.19 11.3086 367.817 12.0552 375.443C12.3922 378.904 15.1967 377.566 15.9613 380.621C17.7059 387.598 15.0897 396.665 15.5019 403.859C15.6516 406.47 17.1868 403.926 17.342 405.711C17.7586 410.446 16.6067 414.622 17.1968 419.378C17.2522 419.809 18.8592 418.756 18.8797 420.235C19.0663 431.446 18.037 441.208 18.0085 452.914C17.9954 458.569 18.8817 468.681 18.7035 474.54C18.4042 484.694 16.0673 497.186 16.635 505.861C16.9984 511.519 18.6057 510.277 19.7009 512.702C21.8238 517.38 18.0212 525.66 17.4324 526.775C17.4129 526.809 17.034 521.941 16.2089 524.539C14.4897 526.049 17.425 526.72 17.4324 526.775C17.052 527.507 16.6872 537.233 16.9944 539.164C17.1623 540.214 18.6852 539.627 18.744 540.174C20.1068 553.178 20.4939 566.206 19.7818 579.396C19.7511 579.628 18.0476 579.278 17.9966 579.824C17.8795 581.004 17.8304 582.118 17.8354 583.182L6.20117 571.547C12.0239 571.52 16.3419 569.869 21.6667 568.823C27.9634 567.586 32.9571 568 36.6845 570.924C41.4355 570.556 48.2518 571.849 52.1743 572.633C56.0966 573.418 56.6439 570.102 56.989 570.037C67.7535 567.938 73.976 569.836 85.1437 570.132C90.4531 570.278 100.985 569.797 106.734 569.434C111.277 569.142 114.014 569.919 118.2 569.422C118.767 569.356 118.194 567.88 118.367 567.823C123.039 566.056 120.794 569.666 121.759 570.31C125.256 572.654 127.416 573.903 133.4 572.8C134.78 572.548 138.8 567.351 141.315 567.047C144.586 566.661 143.351 568.524 146.776 568.073C147.069 568.036 147.008 566.887 149.122 566.937C158.933 567.157 169.63 567.826 179.826 567.711C181.218 567.7 179.433 565.877 181.445 565.83C190.887 565.614 201.236 565.682 210.435 566.535C212.699 566.751 211.28 568.027 211.771 568.406C214.788 570.699 219.068 567.367 219.774 567.304C236.616 565.703 249.506 568.718 266.672 567.282C267.606 567.198 274.799 563.627 278.008 566.69C278.227 566.894 281.402 570.027 284.209 567.885C284.384 567.751 282.405 566.137 285.858 566.302C289.31 566.466 294.866 565.388 299.612 567.161C301.114 567.719 304.665 570.846 309.147 568.354C309.439 568.18 316.358 562.545 318.827 566.433C319.227 567.073 318.808 571.187 324.157 569.077C325.179 568.668 323.324 567.751 326.017 567.178C330.142 566.295 335.607 567.396 340.678 565.564C341.563 565.239 345.327 562.447 348.347 564.566C348.82 564.898 347.921 566.272 349.516 566.426C357.1 567.163 365.04 566.244 372.74 567.194C375.467 567.528 374.073 569.749 376.916 570.344C379.759 570.938 385.487 571.511 388.462 570.496C391.438 569.481 388.187 565.942 392.645 565.659C393.217 565.623 393.789 565.589 394.361 565.559L376.738 583.182C375.729 564.384 377.693 545.748 377.988 526.968C378.033 524.098 376.767 526.477 376.743 522.248C376.649 506.654 375.461 479.731 378.152 466.2C380.307 455.358 381.948 469.002 382.825 460.717C383.243 456.719 379.129 452.394 378.999 451.429C377.684 442.001 379.506 435.449 378.947 426.963C378.831 425.211 377.163 426.93 377.083 425.438C376.794 420.344 377.538 414.99 377.402 410.123C377.337 407.939 376.064 408.341 376.162 406.332C376.382 401.524 376.918 397.272 378.111 392.585C378.22 392.158 379.804 395.038 379.863 391.481C379.954 385.724 381.132 378.577 379.916 371.954C379.55 369.988 376.639 369.911 378.649 365.687C379.069 364.8 382.564 365.931 379.544 361.01C379.043 360.182 374.969 351.915 377.595 347.858C378.286 346.788 381.146 344.056 380.697 341.693C380.625 341.372 379.061 342.656 378.909 340.698C378.399 333.796 378.565 326.562 378.076 319.471C377.942 317.578 376.324 320.398 376.176 317.576C375.767 309.815 376.179 300.126 376.686 292.537C376.875 289.739 378.216 291.673 378.361 291.469C380.734 288.195 377.532 286.259 377.345 285.173C376.227 278.415 377.731 273.269 377.333 267.04C377.227 265.321 375.701 266.54 375.564 266.197C374.234 262.648 376.976 265.292 377.278 263.046C378.134 256.753 378.011 249.737 377.816 243.373C377.742 241.035 375.972 243.663 375.926 241.565C375.621 229.148 375.791 216.24 376.767 204.122C376.954 201.84 378.317 203.276 378.628 202.8C380.806 199.523 377.835 194.719 377.552 193.614C376.26 188.588 377.465 186.636 377.24 182.198C376.12 160.517 376.918 133.747 377.412 113.282C378.046 86.6131 379.343 65.919 379.006 40.4876C378.987 38.8713 377.173 40.5011 377.133 39.1079C376.974 32.5444 376.967 26.018 376.997 19.5L394.361 36.8638C383.014 36.8115 371.693 36.647 360.244 36.9797C358.765 37.0195 360.897 38.7386 358.523 38.8602C353.653 39.1217 347.485 39.0282 342.561 38.4793C340.16 38.2148 343.381 36.7397 340.964 36.5036C335.335 35.9506 329.302 35.8281 323.52 36.1037C321.06 36.2247 324.772 37.983 321.574 38.0032C299.79 38.1777 278.397 38.4805 256.383 36.2037C254.874 36.0473 253.55 32.4739 250.341 33.1592C250.1 34.1509 250.113 35.3175 250.007 36.3775C218.296 36.9485 186.908 35.7097 155.108 35.5181C153.767 35.5105 156.084 37.4038 153.488 37.3986C138.464 37.3706 123.875 37.8952 108.508 36.0133C106.983 35.8292 107.765 32.4983 103.272 33.0021C102.479 33.094 95.7115 33.5382 93.9618 34.2613C93.7241 34.3704 94.9588 35.9251 92.778 35.9704C80.105 36.2065 66.8244 35.8516 54.1733 34.9016C52.1316 34.7453 54.3059 33.0897 52.8517 32.964C42.5359 32.0851 31.3153 33.3437 21.4581 31.8405C14.86 30.8283 17.3028 27.9664 13.7967 25.1493C13.3008 24.7518 9.21508 24.6888 9.00379 23.0498C8.46136 18.9283 10.4404 14.4152 9.62833 10.0221C9.45677 9.07582 3.98493 10.095 7.22461 7.80833C7.45093 7.6553 11.418 6.89637 12.3951 6.12066C13.0754 5.58434 11.8495 3.91743 13.2375 3.23089C14.6254 2.545 16.1505 3.9423 18.4516 3.13568C20.7517 2.31908 19.7404 0.422787 24.3338 0.198311ZM69.8354 576.14C73.4674 577.732 74.0033 571.9 70.0751 573.295C69.8849 573.37 69.6481 576.062 69.8354 576.14ZM12.3218 207.386C9.74929 212.134 13.5319 215.383 15.5186 212.034C17.5032 208.684 13.1016 205.939 12.3218 207.386ZM10.4437 158.15C8.41538 163.699 16.6859 164.573 15.014 158.629C14.9195 158.283 10.5614 157.825 10.4437 158.15ZM30.0563 24.3471C30.0061 24.2696 27.0692 24.1942 26.999 24.2709C25.4351 26.1233 31.3079 26.2729 30.0563 24.3471ZM8.39893 109.291C7.28016 111.023 8.57164 116.011 9.96283 113.859C11.082 112.126 9.7906 107.134 8.39893 109.291ZM259.293 582.364C259.351 582.451 261.456 582.53 261.414 582.038C261.271 580.456 258.341 580.903 259.293 582.364ZM8.30371 26.2502C7.9924 38.5191 1.16057 45.9579 1.93148 32.5972C2.07096 30.1777 4.1101 37.8118 4.72603 34.7322C5.84815 29.0974 1.55859 25.3557 3.85719 19.6055C4.27791 18.5645 8.33665 25.5503 8.31323 26.272C8.31006 26.2649 8.30689 26.2575 8.30371 26.2502ZM71.9269 583.145C71.9995 583.222 74.9144 583.295 74.9842 583.219C76.5626 581.367 70.6907 581.219 71.9269 583.145ZM382.159 585.971C382.32 586.135 389.084 586.289 389.305 586.137C392.833 583.109 379.158 582.79 382.159 585.971ZM1.96956 452.601C0.106838 449.421 -0.112478 445.616 2.22664 443.081C2.10247 446.242 2.08418 449.423 1.96956 452.601Z" fill="white"/>
</mask>
<g mask="url(#mask0_44_5)">
<rect x="-4.89746" y="382.643" width="407.263" height="216.276" fill="#57A0FF"/>
</g>
</svg>
