<svg width="100" height="853" viewBox="0 0 100 853" fill="none" xmlns="http://www.w3.org/2000/svg">
<rect y="0.163574" width="100" height="852" rx="50" fill="#FD5A5D"/>
<path d="M100 794.15L89.627 786.773L24.7744 845.175C20.9296 842.924 17.4134 840.174 14.3125 837.014L100 759.849V794.15ZM100 743.73L89.627 736.354L1.82324 815.425C0.63531 811.153 4.43149e-05 806.651 0 802V800.093L0.616211 800.531L100 711.03V743.73ZM100 694.913L89.627 687.536L0 768.249V749.673L0.616211 750.111L100 660.61V694.913ZM100 644.493L89.627 637.116L0 717.829V700.056L0.616211 700.494L100 610.993V644.493ZM100 594.876L89.627 587.499L0 668.212V649.636L0.616211 650.074L100 560.573V594.876ZM100 544.456L89.627 537.079L0 617.792V600.818L0.616211 601.257L100 511.756V544.456ZM100 495.639L89.627 488.262L0 568.975V550.399L0.616211 550.838L100 461.337V495.639ZM100 445.22L89.627 437.843L0 518.556V499.181L0.616211 499.619L100 410.118V445.22ZM100 394.001L89.627 386.624L0 467.337V448.762L0.616211 449.2L100 359.699V394.001ZM100 343.582L89.627 336.205L0 416.918V399.942L0.616211 400.381L100 310.881V343.582ZM100 294.764L89.627 287.387L0 368.1V349.523L0.616211 349.962L100 260.461V294.764ZM100 244.344L89.627 236.967L0 317.68V299.905L0.616211 300.344L100 210.843V244.344ZM100 194.726L89.627 187.349L0 268.062V249.486L0.616211 249.925L100 160.424V194.726ZM100 144.307L89.627 136.93L0 217.643V200.669L0.616211 201.107L100 111.606V144.307ZM100 95.4893L89.627 88.1123L0 168.825V150.25L0.616211 150.688L100 61.1875V95.4893ZM89.1689 18.9229C94.9521 26.2021 98.7501 35.129 99.7412 44.8867L89.627 37.6934L0 118.406V98.2314L0.616211 98.6699L89.1689 18.9229ZM50 0C56.8757 0 63.4271 1.38762 69.3896 3.89844L0 66.3877V49.999C0.000252838 22.385 22.3859 0 50 0Z" fill="white"/>
</svg>
