<svg width="261" height="261" viewBox="0 0 261 261" fill="none" xmlns="http://www.w3.org/2000/svg">
<g filter="url(#filter0_d_44_4)">
<path d="M110.465 28.7259C110.818 25.7361 114.862 25.0704 116.154 27.7895L132.757 62.7316C133.75 64.8211 136.634 65.0481 137.942 63.1396L159.806 31.2247C161.507 28.7411 165.398 30.0313 165.278 33.0394L163.741 71.6948C163.649 74.0063 166.097 75.5477 168.142 74.4654L202.333 56.3669C204.994 54.9585 207.839 57.909 206.336 60.517L187.01 94.0301C185.855 96.0342 187.306 98.5369 189.62 98.5288L228.305 98.3928C231.316 98.3822 232.464 102.317 229.921 103.927L197.234 124.621C195.28 125.858 195.402 128.749 197.454 129.817L231.772 147.675C234.443 149.064 233.631 153.082 230.63 153.326L192.071 156.459C189.766 156.647 188.531 159.263 189.851 161.162L211.939 192.923C213.658 195.394 211.072 198.575 208.302 197.396L172.704 182.251C170.575 181.346 168.265 183.088 168.552 185.384L173.35 223.771C173.724 226.758 169.956 228.373 168.051 226.042L143.568 196.088C142.104 194.297 139.249 194.767 138.437 196.933L124.846 233.153C123.788 235.971 119.702 235.65 119.098 232.701L111.34 194.8C110.876 192.534 108.13 191.623 106.403 193.164L77.537 218.919C75.2907 220.923 71.8217 218.739 72.6578 215.847L83.4014 178.683C84.0438 176.46 82.0354 174.378 79.7912 174.939L42.2622 184.33C39.3417 185.06 37.285 181.515 39.3693 179.342L66.1533 151.428C67.755 149.759 66.9444 146.981 64.6963 146.435L27.1022 137.309C24.1767 136.599 24.0034 132.504 26.8584 131.549L63.547 119.279C65.741 118.545 66.3139 115.709 64.577 114.181L35.5301 88.6299C33.2697 86.6415 35.0195 82.9346 37.9913 83.416L76.1795 89.6016C78.4631 89.9715 80.2884 87.7267 79.4604 85.5665L65.6151 49.443C64.5377 46.6319 67.8097 44.1628 70.2174 45.97L101.157 69.194C103.007 70.5828 105.666 69.4434 105.937 67.1459L110.465 28.7259Z" fill="#FFD771"/>
</g>
<path d="M102.92 149.234C101.481 149.336 100.076 149.44 98.7057 149.546C97.3497 149.664 95.9492 149.801 94.504 149.957C93.6541 150.038 92.7645 150.123 91.8352 150.214C90.9059 150.305 90.0171 150.397 89.1688 150.491C88.8266 148.424 88.5075 146.382 88.2117 144.363C87.929 142.342 87.6721 140.419 87.4411 138.594C87.0241 135.3 86.699 132.573 86.4658 130.412C86.2441 128.236 86.1086 126.741 86.0594 125.927C88.3769 125.231 90.5351 124.655 92.5338 124.2C94.5309 123.733 96.2064 123.379 97.5605 123.141C98.9129 122.889 99.7677 122.74 100.125 122.695C100.2 123.29 100.251 123.849 100.276 124.369C100.313 124.875 100.343 125.429 100.366 126.031L90.3693 128.123C90.3814 128.431 90.4176 128.877 90.4781 129.46C90.5385 130.044 90.604 130.667 90.6745 131.33C90.745 131.993 90.8105 132.617 90.8709 133.201C90.9446 133.783 90.9998 134.219 91.0367 134.51C91.3409 134.472 91.7898 134.408 92.3834 134.319C92.9753 134.218 93.6408 134.113 94.3799 134.006C95.1173 133.886 95.8555 133.772 96.5946 133.665C97.3452 133.544 98.0306 133.437 98.6506 133.345C99.2839 133.251 99.7791 133.182 100.136 133.136L100.638 136.621C100.439 136.646 100.042 136.69 99.4448 136.752C98.8479 136.814 98.1459 136.896 97.339 136.998C96.5437 137.086 95.736 137.181 94.9159 137.285C94.0941 137.375 93.3591 137.462 92.7109 137.544C92.076 137.624 91.6262 137.681 91.3617 137.715C91.3702 137.888 91.4071 138.233 91.4725 138.749C91.5361 139.252 91.6114 139.847 91.6985 140.535C91.7856 141.223 91.8685 141.931 91.9474 142.66C92.0395 143.388 92.1266 144.076 92.2086 144.724C92.289 145.359 92.3543 145.875 92.4045 146.271C92.6939 146.221 93.2089 146.149 93.9497 146.056C94.6888 145.949 95.3824 145.854 96.0305 145.772C96.9036 145.662 97.7783 145.564 98.6547 145.48C99.531 145.396 100.342 145.327 101.088 145.273C101.832 145.206 102.425 145.164 102.866 145.149C102.895 145.481 102.916 145.861 102.93 146.29C102.956 146.703 102.967 147.112 102.964 147.515C102.975 147.917 102.973 148.273 102.959 148.584C102.957 148.894 102.944 149.11 102.92 149.234ZM108.555 148.037C108.516 147.303 108.429 146.299 108.295 145.026C108.16 143.753 108 142.328 107.814 140.753C107.64 139.162 107.445 137.52 107.231 135.827C107.015 134.12 106.789 132.442 106.553 130.792C106.331 129.14 106.117 127.615 105.913 126.216C105.708 124.804 105.519 123.632 105.347 122.699C105.569 122.644 105.909 122.568 106.367 122.47C106.838 122.37 107.311 122.29 107.788 122.229C108.105 122.189 108.451 122.159 108.824 122.138C109.211 122.116 109.479 122.109 109.628 122.117C109.787 123.051 109.963 124.178 110.157 125.498C110.349 126.804 110.541 128.217 110.734 129.739C110.938 131.245 111.126 132.78 111.297 134.344C111.468 135.909 111.632 137.413 111.788 138.859C111.9 139.852 111.995 140.761 112.072 141.584C112.148 142.395 112.197 143.047 112.219 143.541C113.125 143.373 114.15 143.189 115.294 142.991C116.452 142.791 117.643 142.593 118.868 142.397C120.093 142.202 121.281 142.031 122.432 141.886C122.477 142.135 122.536 142.491 122.607 142.952C122.679 143.413 122.747 143.895 122.811 144.398C122.874 144.901 122.924 145.345 122.959 145.73C121.496 146.063 120.089 146.362 118.738 146.627C117.399 146.877 116.123 147.093 114.909 147.273C113.79 147.455 112.7 147.607 111.64 147.727C110.594 147.846 109.565 147.95 108.555 148.037ZM132.141 145.495C131.837 145.534 131.446 145.576 130.968 145.623C130.505 145.682 130.034 145.728 129.554 145.762C129.088 145.794 128.686 145.805 128.348 145.794C128.2 144.831 128.022 143.638 127.814 142.212C127.607 140.787 127.398 139.295 127.187 137.736C126.977 136.177 126.789 134.749 126.625 133.452C126.387 131.574 126.128 129.47 125.846 127.14C125.576 124.796 125.289 122.312 124.984 119.69C125.127 119.658 125.351 119.616 125.653 119.565C125.956 119.513 126.292 119.463 126.663 119.417C127.045 119.355 127.414 119.301 127.771 119.256C128.127 119.198 128.437 119.152 128.701 119.118C128.958 120.725 129.219 122.413 129.483 124.18C129.76 125.946 130.019 127.674 130.26 129.364C130.501 131.053 130.709 132.593 130.885 133.982C130.964 134.603 131.052 135.352 131.149 136.226C131.26 137.099 131.369 138.013 131.476 138.967C131.596 139.919 131.7 140.84 131.785 141.73C131.883 142.605 131.961 143.381 132.02 144.059C132.09 144.722 132.131 145.201 132.141 145.495ZM133.967 122.101C133.915 121.905 133.848 121.645 133.767 121.319C133.684 120.981 133.606 120.634 133.535 120.28C133.474 119.912 133.419 119.576 133.367 119.274C133.313 118.958 133.277 118.72 133.257 118.562C134.754 118.291 136.471 117.994 138.405 117.668C140.353 117.341 142.319 117.052 144.303 116.801C145.745 116.618 147.15 116.467 148.519 116.347C149.888 116.228 151.151 116.169 152.307 116.17C152.402 116.817 152.469 117.453 152.508 118.08C152.561 118.705 152.583 119.2 152.575 119.564C152.296 119.585 151.864 119.627 151.281 119.687C150.71 119.746 150.068 119.82 149.353 119.911C148.637 119.988 147.922 120.072 147.208 120.162C146.505 120.238 145.882 120.303 145.338 120.359C145.413 120.846 145.528 121.598 145.684 122.613C145.852 123.627 146.041 124.799 146.25 126.13C146.459 127.461 146.677 128.865 146.904 130.341C147.144 131.816 147.376 133.278 147.6 134.728C147.836 136.163 148.05 137.487 148.244 138.699C148.436 139.898 148.596 140.899 148.725 141.702C148.867 142.504 148.95 142.998 148.973 143.183C148.662 143.276 148.232 143.378 147.681 143.488C147.145 143.609 146.607 143.711 146.067 143.793C145.528 143.888 145.099 143.956 144.782 143.996C144.642 143.207 144.474 142.2 144.279 140.975C144.083 139.75 143.872 138.399 143.645 136.923C143.429 135.431 143.209 133.907 142.985 132.349C142.761 130.792 142.549 129.28 142.35 127.813C142.151 126.346 141.977 125.024 141.828 123.847C141.753 123.252 141.684 122.71 141.622 122.22C141.572 121.716 141.522 121.272 141.474 120.888C140.961 120.98 140.369 121.082 139.698 121.194C139.025 121.292 138.34 121.399 137.642 121.514C136.944 121.63 136.273 121.741 135.628 121.85C134.995 121.944 134.441 122.027 133.967 122.101ZM172.792 140.39C171.353 140.491 169.949 140.595 168.578 140.701C167.222 140.819 165.821 140.956 164.376 141.112C163.526 141.193 162.637 141.279 161.707 141.369C160.778 141.46 159.889 141.552 159.041 141.646C158.699 139.58 158.38 137.537 158.084 135.518C157.801 133.498 157.544 131.575 157.313 129.749C156.896 126.455 156.571 123.728 156.338 121.567C156.116 119.391 155.981 117.896 155.931 117.082C158.249 116.386 160.407 115.81 162.406 115.356C164.403 114.888 166.079 114.535 167.433 114.296C168.785 114.044 169.64 113.896 169.997 113.85C170.072 114.446 170.123 115.004 170.148 115.525C170.186 116.031 170.215 116.585 170.238 117.187L160.241 119.279C160.253 119.586 160.29 120.032 160.35 120.615C160.411 121.199 160.476 121.823 160.547 122.486C160.617 123.149 160.683 123.772 160.743 124.356C160.817 124.938 160.872 125.374 160.909 125.665C161.213 125.627 161.662 125.563 162.255 125.475C162.847 125.373 163.513 125.268 164.252 125.161C164.989 125.041 165.728 124.928 166.467 124.821C167.217 124.699 167.903 124.592 168.523 124.5C169.156 124.406 169.651 124.337 170.008 124.292L170.51 127.776C170.311 127.801 169.914 127.845 169.317 127.907C168.72 127.969 168.018 128.051 167.211 128.154C166.416 128.241 165.608 128.336 164.788 128.44C163.966 128.531 163.231 128.617 162.583 128.699C161.948 128.779 161.498 128.836 161.234 128.87C161.242 129.043 161.279 129.388 161.345 129.904C161.408 130.407 161.484 131.002 161.571 131.69C161.658 132.378 161.741 133.086 161.82 133.815C161.912 134.543 161.999 135.231 162.081 135.879C162.161 136.514 162.226 137.03 162.277 137.427C162.566 137.377 163.081 137.305 163.822 137.211C164.561 137.104 165.254 137.009 165.903 136.927C166.776 136.817 167.65 136.72 168.527 136.635C169.403 136.551 170.214 136.482 170.96 136.428C171.704 136.361 172.297 136.319 172.738 136.304C172.767 136.636 172.788 137.017 172.802 137.445C172.828 137.858 172.839 138.267 172.836 138.67C172.847 139.072 172.845 139.429 172.831 139.74C172.829 140.049 172.817 140.265 172.792 140.39Z" fill="#E56E2D"/>
<defs>
<filter id="filter0_d_44_4" x="24.8096" y="26.0752" width="210.58" height="213.024" filterUnits="userSpaceOnUse" color-interpolation-filters="sRGB">
<feFlood flood-opacity="0" result="BackgroundImageFix"/>
<feColorMatrix in="SourceAlpha" type="matrix" values="0 0 0 0 0 0 0 0 0 0 0 0 0 0 0 0 0 0 127 0" result="hardAlpha"/>
<feOffset dx="2" dy="4"/>
<feComposite in2="hardAlpha" operator="out"/>
<feColorMatrix type="matrix" values="0 0 0 0 1 0 0 0 0 0.586058 0 0 0 0 0.172115 0 0 0 1 0"/>
<feBlend mode="normal" in2="BackgroundImageFix" result="effect1_dropShadow_44_4"/>
<feBlend mode="normal" in="SourceGraphic" in2="effect1_dropShadow_44_4" result="shape"/>
</filter>
</defs>
</svg>
